<?xml version="1.0" encoding="UTF-8" standalone="no"?>
<!DOCTYPE svg PUBLIC "-//W3C//DTD SVG 1.1//EN"
 "http://www.w3.org/Graphics/SVG/1.1/DTD/svg11.dtd">
<!-- Generated by graphviz version 8.1.0 (20230707.0739)
 -->
<!-- Pages: 1 -->
<svg width="462pt" height="218pt"
 viewBox="0.00 0.00 461.52 217.87" xmlns="http://www.w3.org/2000/svg" xmlns:xlink="http://www.w3.org/1999/xlink">
<g id="graph0" class="graph" transform="scale(1 1) rotate(0) translate(4 213.87)">
<!-- if condition -->
<g id="node1" class="node">
<title>if condition</title>
<polygon fill="#f38ba8" stroke="#cdd6f4" points="73.99,-179.41 0,-105.42 73.99,-31.43 147.98,-105.42 73.99,-179.41"/>
<text text-anchor="middle" x="73.99" y="-99.62" font-family="sans-serif" font-size="14.00" fill="#11111b">if condition</text>
</g>
<!-- this_case -->
<g id="node2" class="node">
<title>this_case</title>
<ellipse fill="#89b4fa" stroke="#cdd6f4" cx="265.41" cy="-162.42" rx="47.45" ry="47.45"/>
<text text-anchor="middle" x="265.41" y="-156.62" font-family="sans-serif" font-size="14.00" fill="#11111b">this_case</text>
</g>
<!-- if condition&#45;&gt;this_case -->
<g id="edge1" class="edge">
<title>if condition&#45;&gt;this_case</title>
<path fill="none" stroke="#cdd6f4" d="M131.57,-122.45C156.07,-129.82 184.65,-138.42 209.02,-145.75"/>
<polygon fill="#cdd6f4" stroke="#cdd6f4" points="207.94,-149.39 218.53,-148.92 209.96,-142.68 207.94,-149.39"/>
<text text-anchor="middle" x="182.48" y="-143.12" font-family="sans-serif" font-size="14.00" fill="#cdd6f4">True</text>
</g>
<!-- that_case -->
<g id="node3" class="node">
<title>that_case</title>
<ellipse fill="#89b4fa" stroke="#cdd6f4" cx="265.41" cy="-48.42" rx="48.42" ry="48.42"/>
<text text-anchor="middle" x="265.41" y="-42.62" font-family="sans-serif" font-size="14.00" fill="#11111b">that_case</text>
</g>
<!-- if condition&#45;&gt;that_case -->
<g id="edge2" class="edge">
<title>if condition&#45;&gt;that_case</title>
<path fill="none" stroke="#cdd6f4" d="M131.57,-88.4C155.78,-81.11 183.99,-72.62 208.16,-65.35"/>
<polygon fill="#cdd6f4" stroke="#cdd6f4" points="209.04,-68.44 217.61,-62.2 207.02,-61.73 209.04,-68.44"/>
<text text-anchor="middle" x="182.48" y="-78.12" font-family="sans-serif" font-size="14.00" fill="#cdd6f4">False</text>
</g>
<!-- afterwards -->
<g id="node4" class="node">
<title>afterwards</title>
<ellipse fill="#89b4fa" stroke="#cdd6f4" cx="402.17" cy="-104.42" rx="51.35" ry="51.35"/>
<text text-anchor="middle" x="402.17" y="-98.62" font-family="sans-serif" font-size="14.00" fill="#11111b">afterwards</text>
</g>
<!-- this_case&#45;&gt;afterwards -->
<g id="edge3" class="edge">
<title>this_case&#45;&gt;afterwards</title>
<path fill="none" stroke="#cdd6f4" d="M309.42,-143.91C320.73,-139.04 333.1,-133.72 345,-128.6"/>
<polygon fill="#cdd6f4" stroke="#cdd6f4" points="346.04,-131.53 353.84,-124.36 343.27,-125.1 346.04,-131.53"/>
</g>
<!-- that_case&#45;&gt;afterwards -->
<g id="edge4" class="edge">
<title>that_case&#45;&gt;afterwards</title>
<path fill="none" stroke="#cdd6f4" d="M310.53,-66.76C321.23,-71.2 332.82,-76.02 344.02,-80.67"/>
<polygon fill="#cdd6f4" stroke="#cdd6f4" points="342.58,-84.28 353.16,-84.89 345.27,-77.82 342.58,-84.28"/>
</g>
</g>
</svg>
