<?xml version="1.0" encoding="UTF-8" standalone="no"?>
<!DOCTYPE svg PUBLIC "-//W3C//DTD SVG 1.1//EN"
 "http://www.w3.org/Graphics/SVG/1.1/DTD/svg11.dtd">
<!-- Generated by graphviz version 8.1.0 (20230707.0739)
 -->
<!-- Pages: 1 -->
<svg width="481pt" height="200pt"
 viewBox="0.00 0.00 480.89 200.10" xmlns="http://www.w3.org/2000/svg" xmlns:xlink="http://www.w3.org/1999/xlink">
<g id="graph0" class="graph" transform="scale(1 1) rotate(0) translate(4 196.1)">
<!-- while -->
<g id="node1" class="node">
<title>while</title>
<polygon fill="#f38ba8" stroke="#cdd6f4" points="96.05,-192.1 0,-96.05 96.05,0 192.1,-96.05 96.05,-192.1"/>
<text text-anchor="middle" x="96.05" y="-90.25" font-family="sans-serif" font-size="14.00" fill="#11111b">while condition</text>
</g>
<!-- in_loop -->
<g id="node2" class="node">
<title>in_loop</title>
<ellipse fill="#89b4fa" stroke="#cdd6f4" cx="294.53" cy="-129.05" rx="38.67" ry="38.67"/>
<text text-anchor="middle" x="294.53" y="-123.25" font-family="sans-serif" font-size="14.00" fill="#11111b">in_loop</text>
</g>
<!-- while&#45;&gt;in_loop -->
<g id="edge1" class="edge">
<title>while&#45;&gt;in_loop</title>
<path fill="none" stroke="#cdd6f4" d="M178.95,-109.81C201.52,-113.6 225.27,-117.59 245.25,-120.94"/>
<polygon fill="#cdd6f4" stroke="#cdd6f4" points="244.5,-124.53 254.94,-122.74 245.66,-117.63 244.5,-124.53"/>
<text text-anchor="middle" x="223.98" y="-120.75" font-family="sans-serif" font-size="14.00" fill="#cdd6f4">True</text>
</g>
<!-- afterwards -->
<g id="node3" class="node">
<title>afterwards</title>
<ellipse fill="#89b4fa" stroke="#cdd6f4" cx="421.54" cy="-69.05" rx="51.35" ry="51.35"/>
<text text-anchor="middle" x="421.54" y="-63.25" font-family="sans-serif" font-size="14.00" fill="#11111b">afterwards</text>
</g>
<!-- while&#45;&gt;afterwards -->
<g id="edge3" class="edge">
<title>while&#45;&gt;afterwards</title>
<path fill="none" stroke="#cdd6f4" d="M174.99,-78.33C200.6,-73.31 229.32,-68.54 255.85,-66.05 290.08,-62.85 298.83,-65.46 333.2,-66.05 341.52,-66.19 350.28,-66.41 358.92,-66.67"/>
<polygon fill="#cdd6f4" stroke="#cdd6f4" points="358.64,-70.2 368.74,-67.01 358.86,-63.2 358.64,-70.2"/>
<text text-anchor="middle" x="294.53" y="-67.75" font-family="sans-serif" font-size="14.00" fill="#cdd6f4">False</text>
</g>
<!-- in_loop&#45;&gt;while -->
<g id="edge2" class="edge">
<title>in_loop&#45;&gt;while</title>
<path fill="none" stroke="#cdd6f4" d="M257.58,-116.24C251.08,-114.26 244.31,-112.42 237.85,-111.05 224.63,-108.24 210.59,-105.95 196.7,-104.08"/>
<polygon fill="#cdd6f4" stroke="#cdd6f4" points="197.48,-100.52 187.12,-102.73 196.6,-107.46 197.48,-100.52"/>
</g>
<!-- in_loop&#45;&gt;afterwards -->
</g>
</svg>
